#!OML:ASF E:\Style4\Style4.ASF
:FULLY-SPECIFIED
:DEGREES
1969
root 0.0623469 17.743 -1.16912 1.95414 0.175711 2.53211
lowerback 5.43084 2.39923 -0.385695
upperback 1.45739 3.16818 -0.212883
thorax -1.55048 1.58171 -0.213759
lowerneck -0.294863 -5.09358 -5.4478
upperneck 2.97739 -6.81635 3.27301
head 1.30328 -3.42601 1.85703
rclavicle -6.05796e-014 1.55052e-014
rhumerus -15.5851 -12.8446 -59.3453
rradius 67.0018
rwrist 7.51406
rhand -27.9538 18.9643
rfingers 7.12502
rthumb -1.34129 -11.0112
lclavicle -6.05796e-014 1.55052e-014
lhumerus -18.444 -7.56879 64.0252
lradius 75.002
lwrist -8.29872
lhand -22.2474 29.2996
lfingers 7.12502
lthumb 4.16988 59.2385
rfemur -15.1596 2.70973 15.4841
rtibia 33.9989
rfoot -19.5187 -12.6508
rtoes -11.9195
lfemur -13.7486 -2.98683 -21.5748
ltibia 31.3142
lfoot -19.4346 8.41687
ltoes -14.432
1970
root 0.0615365 17.7434 -1.17125 1.96 0.160148 2.50523
lowerback 5.44885 2.38957 -0.38392
upperback 1.44423 3.15553 -0.198104
thorax -1.57478 1.57537 -0.199985
lowerneck -0.275474 -5.08706 -5.45967
upperneck 3.01739 -6.80885 3.2675
head 1.31259 -3.42286 1.85757
rclavicle -9.93923e-017 -6.36111e-015
rhumerus -15.548 -12.7479 -59.3676
rradius 66.9921
rwrist 7.45616
rhand -27.9562 19.0082
rfingers 7.12502
rthumb -1.34359 -10.9673
lclavicle -9.93923e-017 -6.36111e-015
lhumerus -18.4627 -7.5538 64.0093
lradius 74.9918
lwrist -8.39077
lhand -21.801 28.7843
lfingers 7.12502
lthumb 4.60095 58.7143
rfemur -15.1791 2.72062 15.5174
rtibia 33.999
rfoot -19.4681 -12.6441
rtoes -11.9938
lfemur -13.7724 -2.96832 -21.5397
ltibia 31.3308
lfoot -19.4158 8.48532
ltoes -14.6921
1971
root 0.0618264 17.7442 -1.1718 1.96218 0.13158 2.55954
lowerback 5.45223 2.39986 -0.44228
upperback 1.43819 3.16569 -0.212561
thorax -1.5852 1.58057 -0.183292
lowerneck -0.281541 -5.09285 -5.46336
upperneck 3.08239 -6.81642 3.24686
head 1.33403 -3.42726 1.8505
rclavicle -5.97845e-014 1.19271e-014
rhumerus -15.5247 -12.6734 -59.3615
rradius 66.9623
rwrist 7.39191
rhand -27.9913 19.0232
rfingers 7.12502
rthumb -1.3775 -10.9521
lclavicle -5.97845e-014 1.19271e-014
lhumerus -18.4527 -7.58309 64.0298
lradius 74.9982
lwrist -8.4489
lhand -21.6099 28.6719
lfingers 7.12502
lthumb 4.78543 58.5978
rfemur -15.1829 2.71411 15.4552
rtibia 33.9831
rfoot -19.4474 -12.6293
rtoes -12.1294
lfemur -13.7674 -2.97116 -21.6047
ltibia 31.3316
lfoot -19.4619 8.62034
ltoes -15.2819
1972
root 0.0615634 17.7435 -1.17201 1.97084 0.109766 2.58645
lowerback 5.43895 2.39458 -0.483665
upperback 1.45001 3.15649 -0.214389
thorax -1.56777 1.57607 -0.160538
lowerneck -0.386255 -5.09664 -5.46758
upperneck 3.17618 -6.81598 3.20773
head 1.38069 -3.42729 1.83488
rclavicle 2.18663e-014 -1.03368e-014
rhumerus -15.4511 -12.6529 -59.3914
rradius 66.9408
rwrist 7.42261
rhand -27.9374 19.0855
rfingers 7.12502
rthumb -1.32543 -10.8901
lclavicle 2.18663e-014 -1.03368e-014
lhumerus -18.3934 -7.58219 64.026
lradius 75.0355
lwrist -8.37546
lhand -21.841 29.2564
lfingers 7.12502
lthumb 4.56231 59.1873
rfemur -15.1902 2.72853 15.4237
rtibia 33.9584
rfoot -19.4292 -12.6363
rtoes -12.0733
lfemur -13.7635 -2.97092 -21.6355
ltibia 31.317
lfoot -19.532 8.63713
ltoes -15.0513
1973
root 0.0618583 17.7416 -1.1722 1.97831 0.105165 2.55841
lowerback 5.4087 2.37586 -0.463232
upperback 1.46183 3.13329 -0.196426
thorax -1.53864 1.56446 -0.150245
lowerneck -0.404939 -5.08163 -5.49578
upperneck 3.18585 -6.79473 3.20997
head 1.38733 -3.41691 1.84045
rclavicle -1.55549e-014 -5.96354e-015
rhumerus -15.3737 -12.614 -59.4121
rradius 66.9312
rwrist 7.45922
rhand -27.8389 19.0319
rfingers 7.12502
rthumb -1.23035 -10.9443
lclavicle -1.55549e-014 -5.96354e-015
lhumerus -18.331 -7.57247 64.0144
lradius 75.0488
lwrist -8.25722
lhand -22.1019 29.6873
lfingers 7.12502
lthumb 4.31034 59.6234
rfemur -15.2285 2.75161 15.4501
rtibia 33.9389
rfoot -19.3031 -12.7144
rtoes -12.3791
lfemur -13.7645 -2.99184 -21.6013
ltibia 31.2906
lfoot -19.5271 8.56039
ltoes -14.5831
1974
root 0.0619577 17.739 -1.17178 1.97088 0.115212 2.55799
lowerback 5.42053 2.37786 -0.445041
upperback 1.45086 3.13656 -0.211812
thorax -1.55468 1.56606 -0.177198
lowerneck -0.389537 -5.08237 -5.48765
upperneck 3.20824 -6.79752 3.22706
head 1.39236 -3.41826 1.84465
rclavicle 2.39536e-014 -3.97569e-016
rhumerus -15.3957 -12.6376 -59.4271
rradius 66.9419
rwrist 7.48163
rhand -27.8033 18.9663
rfingers 7.12502
rthumb -1.19589 -11.0101
lclavicle 2.39536e-014 -3.97569e-016
lhumerus -18.2984 -7.63099 63.9929
lradius 75.0416
lwrist -8.2219
lhand -22.0655 29.6181
lfingers 7.12502
lthumb 4.34557 59.5535
rfemur -15.251 2.75905 15.446
rtibia 33.9317
rfoot -19.2471 -12.7627
rtoes -12.7269
lfemur -13.7418 -3.05599 -21.5893
ltibia 31.2592
lfoot -19.5357 8.46194
ltoes -14.0083
1975
root 0.0616219 17.7403 -1.17115 1.97132 0.113365 2.52879
lowerback 5.41941 2.37747 -0.420443
upperback 1.44983 3.13755 -0.202477
thorax -1.55432 1.5665 -0.181389
lowerneck -0.387669 -5.08281 -5.48268
upperneck 3.21128 -6.79816 3.22233
head 1.39262 -3.41861 1.84225
rclavicle 3.21037e-014 -1.23246e-014
rhumerus -15.395 -12.6378 -59.4428
rradius 66.9546
rwrist 7.55101
rhand -27.8513 18.9578
rfingers 7.12502
rthumb -1.24234 -11.0184
lclavicle 3.21037e-014 -1.23246e-014
lhumerus -18.266 -7.68615 64
lradius 75.0847
lwrist -8.09203
lhand -22.2237 30.0429
lfingers 7.12502
lthumb 4.1928 59.9814
rfemur -15.211 2.74405 15.4851
rtibia 33.9356
rfoot -19.3396 -12.7
rtoes -12.5497
lfemur -13.7176 -3.06694 -21.5488
ltibia 31.2228
lfoot -19.5957 8.42349
ltoes -13.6134
1976
root 0.0608978 17.7425 -1.17092 1.95447 0.0983172 2.50092
lowerback 5.41838 2.37956 -0.392183
upperback 1.4645 3.14192 -0.202532
thorax -1.53716 1.56863 -0.197016
lowerneck -0.36679 -5.08004 -5.46223
upperneck 3.17012 -6.79538 3.22425
head 1.3749 -3.41686 1.84033
rclavicle 2.37548e-014 -6.36111e-015
rhumerus -15.3447 -12.6334 -59.4778
rradius 66.9199
rwrist 7.52012
rhand -27.8534 19.0455
rfingers 7.12502
rthumb -1.24428 -10.9306
lclavicle 2.37548e-014 -6.36111e-015
lhumerus -18.2363 -7.78206 63.9775
lradius 75.1438
lwrist -7.93798
lhand -22.4792 30.4933
lfingers 7.12502
lthumb 3.946 60.4365
rfemur -15.1619 2.74947 15.5256
rtibia 33.9567
rfoot -19.4265 -12.6578
rtoes -12.2989
lfemur -13.6817 -3.05976 -21.5125
ltibia 31.1972
lfoot -19.6323 8.41007
ltoes -13.4863
1977
root 0.0605702 17.7437 -1.16985 1.94486 0.083831 2.55823
lowerback 5.40875 2.39202 -0.456846
upperback 1.46628 3.15471 -0.221772
thorax -1.53236 1.57514 -0.181047
lowerneck -0.349781 -5.0904 -5.43974
upperneck 3.18277 -6.81008 3.20888
head 1.37505 -3.42433 1.83138
rclavicle 2.06239e-014 -1.70955e-014
rhumerus -15.3245 -12.6314 -59.4943
rradius 66.9003
rwrist 7.49002
rhand -27.8583 19.008
rfingers 7.12502
rthumb -1.24902 -10.9681
lclavicle 2.06239e-014 -1.70955e-014
lhumerus -18.1945 -7.8425 63.9902
lradius 75.1458
lwrist -7.97123
lhand -22.3839 30.3865
lfingers 7.12502
lthumb 4.03802 60.328
rfemur -15.163 2.77033 15.4595
rtibia 33.9925
rfoot -19.4578 -12.6449
rtoes -12.0356
lfemur -13.6543 -3.05535 -21.5842
ltibia 31.1762
lfoot -19.5674 8.5206
ltoes -14.1517
1978
root 0.0604485 17.7449 -1.16987 1.94508 0.0884975 2.55839
lowerback 5.40809 2.39009 -0.46109
upperback 1.45909 3.15192 -0.220532
thorax -1.53968 1.57376 -0.177403
lowerneck -0.325071 -5.08914 -5.48072
upperneck 3.19031 -6.81021 3.24035
head 1.37629 -3.42474 1.8493
rclavicle -1.69464e-014 1.27222e-014
rhumerus -15.3319 -12.5416 -59.5129
rradius 66.9363
rwrist 7.3522
rhand -27.9829 18.886
rfingers 7.12502
rthumb -1.36942 -11.0894
lclavicle -1.69464e-014 1.27222e-014
lhumerus -18.2028 -7.85314 64.0244
lradius 75.1645
lwrist -8.03946
lhand -22.2377 30.3078
lfingers 7.12502
lthumb 4.1792 60.2465
rfemur -15.1705 2.74926 15.4591
rtibia 34.0065
rfoot -19.4816 -12.6263
rtoes -11.9315
lfemur -13.6577 -3.05267 -21.5985
ltibia 31.1763
lfoot -19.4937 8.67656
ltoes -15.1538
1979
root 0.0601988 17.7453 -1.17057 1.93668 0.0815626 2.61546
lowerback 5.42791 2.40562 -0.516505
upperback 1.45934 3.16892 -0.246707
thorax -1.552 1.58235 -0.175381
lowerneck -0.348045 -5.10081 -5.44803
upperneck 3.21038 -6.82521 3.23594
head 1.38585 -3.43183 1.841
rclavicle -8.89561e-015 1.19271e-015
rhumerus -15.3588 -12.5367 -59.5295
rradius 66.9596
rwrist 7.26641
rhand -28.0773 18.8613
rfingers 7.12502
rthumb -1.4606 -11.1134
lclavicle -8.89561e-015 1.19271e-015
lhumerus -18.1601 -7.91266 64.0427
lradius 75.1451
lwrist -8.12291
lhand -22.2833 30.1088
lfingers 7.12502
lthumb 4.1352 60.0484
rfemur -15.172 2.7506 15.3953
rtibia 34.0141
rfoot -19.5023 -12.5952
rtoes -11.856
lfemur -13.6501 -3.04212 -21.6729
ltibia 31.1736
lfoot -19.4652 8.77891
ltoes -15.6409
1980
root 0.0596027 17.7447 -1.17036 1.90373 0.0645499 2.61582
lowerback 5.45971 2.41734 -0.533627
upperback 1.46525 3.1834 -0.241802
thorax -1.56487 1.58959 -0.163117
lowerneck -0.367052 -5.104 -5.44138
upperneck 3.24771 -6.82875 3.22561
head 1.40055 -3.43371 1.83552
rclavicle -1.23743e-014 5.96354e-015
rhumerus -15.3411 -12.551 -59.5357
rradius 66.9464
rwrist 7.27016
rhand -28.1053 18.956
rfingers 7.12502
rthumb -1.48766 -11.0185
lclavicle -1.23743e-014 5.96354e-015
lhumerus -18.1359 -7.92606 64.0589
lradius 75.0805
lwrist -8.26249
lhand -22.2388 29.5504
lfingers 7.12502
lthumb 4.1782 59.4891
rfemur -15.1354 2.76925 15.3988
rtibia 34.0107
rfoot -19.512 -12.5897
rtoes -11.8672
lfemur -13.6097 -3.06487 -21.6756
ltibia 31.1798
lfoot -19.441 8.75982
ltoes -15.3705
1981
root 0.0587293 17.7441 -1.16995 1.87971 0.0510477 2.61521
lowerback 5.47124 2.41697 -0.562438
upperback 1.4794 3.1815 -0.229391
thorax -1.55902 1.58867 -0.134374
lowerneck -0.383791 -5.09403 -5.45834
upperneck 3.26152 -6.81509 3.24247
head 1.40871 -3.42684 1.8437
rclavicle 2.78299e-015 -1.31198e-014
rhumerus -15.2635 -12.55 -59.5715
rradius 66.9034
rwrist 7.31493
rhand -28.0897 18.989
rfingers 7.12502
rthumb -1.47251 -10.9856
lclavicle 2.78299e-015 -1.31198e-014
lhumerus -18.0926 -7.9135 64.0645
lradius 75.0319
lwrist -8.32499
lhand -21.8408 28.8211
lfingers 7.12502
lthumb 4.56251 58.7519
rfemur -15.1112 2.77116 15.4026
rtibia 34.0057
rfoot -19.4859 -12.6034
rtoes -11.8487
lfemur -13.5763 -3.04426 -21.6735
ltibia 31.1756
lfoot -19.4301 8.64353
ltoes -14.6392
